<svg xmlns="http://www.w3.org/2000/svg" viewBox="0 0 303.1 43.61"><defs><style>.cls-1{fill:#fff;}</style></defs><title>bannerRecurso 2LOGO</title><g id="Capa_2" data-name="Capa 2"><g id="Capa_1-2" data-name="Capa 1"><path class="cls-1" d="M75.87,38.65H56.63V4.73H74.38a8.65,8.65,0,0,1,2,.24,10.08,10.08,0,0,1,2,.7,11.09,11.09,0,0,1,1.83,1.07,8,8,0,0,1,1.47,1.35A9.93,9.93,0,0,1,83.37,11,9.72,9.72,0,0,1,84,14.34a9.33,9.33,0,0,1-.79,3.79A9.2,9.2,0,0,1,80.9,21.3a8.81,8.81,0,0,1,1.77,1.48,9.7,9.7,0,0,1,1.38,1.93,10.25,10.25,0,0,1,.89,2.2,8.3,8.3,0,0,1,.33,2.26,9.39,9.39,0,0,1-.72,3.65,9.24,9.24,0,0,1-2,3,10,10,0,0,1-3,2.06A8.84,8.84,0,0,1,75.87,38.65Zm-4.24-27.1H65.55v6.9h6.08a3.44,3.44,0,0,0,2.43-5.88A3.35,3.35,0,0,0,71.63,11.55Zm.31,13.07H65.55v6.86h6.39a3.43,3.43,0,1,0,0-6.86Z"/><path class="cls-1" d="M89.82,38.65V4.73H99V38.65Z"/><path class="cls-1" d="M132.27,13.12H123V38.65h-9.22V13.12h-9.32l-.61-.61V4.73h29.08v7.78Z"/><path class="cls-1" d="M176.39,38.65V21.21l-7.26,12a.68.68,0,0,1-.44.35,1.83,1.83,0,0,1-.52.09,2,2,0,0,1-.57-.09.71.71,0,0,1-.44-.35l-7.25-12V38.65H151V4.73h8.31a.91.91,0,0,1,.74.39l8,13.42,8.08-13.42a.89.89,0,0,1,.7-.39h8.36V38.65Z"/><path class="cls-1" d="M219.15,26.24a12.67,12.67,0,0,1-.76,4.37,13,13,0,0,1-2.15,3.72A14.18,14.18,0,0,1,213,37.19a16.33,16.33,0,0,1-4.07,1.86,16.17,16.17,0,0,1-2,.48,11.37,11.37,0,0,1-2,.17,11.06,11.06,0,0,1-2-.17,16.64,16.64,0,0,1-1.94-.48,16.17,16.17,0,0,1-4.07-1.86,14.23,14.23,0,0,1-3.26-2.86,12.75,12.75,0,0,1-2.14-3.72,12.44,12.44,0,0,1-.77-4.37V4.73h9.45V25.67a4,4,0,0,0,.39,1.77,4.52,4.52,0,0,0,1,1.4,4.94,4.94,0,0,0,1.51.92,4.86,4.86,0,0,0,1.77.32,4.93,4.93,0,0,0,1.81-.32,4.82,4.82,0,0,0,1.51-.92,4.52,4.52,0,0,0,1.05-1.4,3.9,3.9,0,0,0,.4-1.77V4.73h9.44Z"/><path class="cls-1" d="M237.6,39.7a28.57,28.57,0,0,1-6.75-.8,33.56,33.56,0,0,1-6.41-2.24,1.76,1.76,0,0,1-.44-.17c-.23-.15-.35-.25-.35-.31a1.77,1.77,0,0,1,.18-.35c.11-.2.26-.45.44-.76s.37-.65.61-1l.7-1.2,1.4-2.31c.43-.73.74-1.25.91-1.57a7.37,7.37,0,0,1,1.1.52,25.09,25.09,0,0,0,4.74,1.82,19.68,19.68,0,0,0,5.05.63c.5,0,1,0,1.6-.06a6.08,6.08,0,0,0,1.55-.33,2.83,2.83,0,0,0,1.16-.81,2.42,2.42,0,0,0,.46-1.56,1.41,1.41,0,0,0-.27-.85,2.71,2.71,0,0,0-.65-.66,5.38,5.38,0,0,0-.83-.5,6.2,6.2,0,0,0-.83-.35,10.31,10.31,0,0,0-1.88-.53c-.64-.11-1.29-.25-1.93-.39q-1.26-.31-2.49-.57c-.82-.18-1.6-.38-2.36-.61s-1.54-.49-2.25-.77a11.91,11.91,0,0,1-2-1,8.57,8.57,0,0,1-3-3A10,10,0,0,1,224,14.84a10.53,10.53,0,0,1,.24-2.21,9.63,9.63,0,0,1,.72-2.12,9.94,9.94,0,0,1,2.49-3.33,12,12,0,0,1,3.39-2.06,17.41,17.41,0,0,1,3.92-1,28.22,28.22,0,0,1,4.11-.31,27.13,27.13,0,0,1,6.64.82,21.58,21.58,0,0,1,6.25,2.66c-.73,1.23-1.43,2.44-2.12,3.62l-2.07,3.62a41,41,0,0,0-4.92-2,16.43,16.43,0,0,0-5.14-.78q-.66,0-1.38.06a4.72,4.72,0,0,0-1.33.33,2.65,2.65,0,0,0-1,.76,2.13,2.13,0,0,0-.39,1.34,2,2,0,0,0,.26,1,2.52,2.52,0,0,0,1.12.85,11.46,11.46,0,0,0,2,.68c.78.21,1.64.4,2.58.59s1.9.42,2.93.68,2,.56,3,.89a18.12,18.12,0,0,1,2.84,1.22,11.25,11.25,0,0,1,2.39,1.71,7.23,7.23,0,0,1,1.66,2.33,7.42,7.42,0,0,1,.65,2.16,15,15,0,0,1,.18,2.3,9.48,9.48,0,0,1-4.9,8.84,15.64,15.64,0,0,1-4.94,1.74A30.2,30.2,0,0,1,237.6,39.7Z"/><path class="cls-1" d="M258.19,38.65V4.73h9.14V38.65Z"/><path class="cls-1" d="M288.8,39.7a17.31,17.31,0,0,1-7-1.42,17.79,17.79,0,0,1-5.68-3.89,18.4,18.4,0,0,1-3.83-5.73,17.85,17.85,0,0,1,0-13.86,18.36,18.36,0,0,1,3.83-5.72,18,18,0,0,1,5.68-3.9,17.47,17.47,0,0,1,7-1.42A17.71,17.71,0,0,1,295.36,5a19.37,19.37,0,0,1,5.81,3.61l-7,6.12A9.07,9.07,0,0,0,288.84,13a8.41,8.41,0,0,0-3.41.69,8.22,8.22,0,0,0-2.71,1.93,9.28,9.28,0,0,0-1.79,2.82,8.65,8.65,0,0,0-.66,3.34,8.75,8.75,0,0,0,.66,3.39,9,9,0,0,0,1.79,2.8,8.8,8.8,0,0,0,2.69,1.92,7.85,7.85,0,0,0,3.39.73,8.12,8.12,0,0,0,3.91-1,9.7,9.7,0,0,0,3.17-2.71l7.22,5.86a19.06,19.06,0,0,1-6.41,5.14A17.63,17.63,0,0,1,288.8,39.7Z"/><path class="cls-1" d="M36.39,28.52a13.78,13.78,0,0,0-1.16-2.84,11.61,11.61,0,0,0-1.77-2.47,11.34,11.34,0,0,0-2.27-1.91,11.78,11.78,0,0,0,2.92-4.08,12.13,12.13,0,0,0,1-4.86,12.62,12.62,0,0,0-2.92-8,10.18,10.18,0,0,0-1.88-1.75A14.84,14.84,0,0,0,28,1.21a13.27,13.27,0,0,0-2.59-.9A11,11,0,0,0,22.82,0H0V43.61H24.73a11.35,11.35,0,0,0,4.72-1A12.69,12.69,0,0,0,33.3,40a11.93,11.93,0,0,0,2.58-3.87,12.05,12.05,0,0,0,.93-4.7A10.63,10.63,0,0,0,36.39,28.52ZM24.88,19.41a6.76,6.76,0,0,1-1.65,3.05c-.06-.41,0-.8-.05-1.2a4.45,4.45,0,0,0-1.66-3.32,38.85,38.85,0,0,0-3.46-2.67c-.08-.06-.15-.18-.25-.13s0,.19,0,.28v12a5.34,5.34,0,0,1-1.2,3.64,6,6,0,0,1-4,2.06,5.32,5.32,0,0,1-3.14-.46,3.57,3.57,0,0,1-1.53-5.21,6.16,6.16,0,0,1,4.68-2.93,4.86,4.86,0,0,1,1.32,0c.41.05.43,0,.43-.39V9.63a2.54,2.54,0,0,1,0-.39.72.72,0,0,1,.71-.68.69.69,0,0,1,.72.63,1,1,0,0,1,0,.3c-.13.6.23.94.64,1.24,1,.73,2.06,1.34,3.1,2,.83.51,1.68,1,2.48,1.56a9.36,9.36,0,0,1,2.37,2.41A3.53,3.53,0,0,1,24.88,19.41Z"/></g></g></svg>