<svg xmlns="http://www.w3.org/2000/svg" viewBox="0 0 339.17 48.62"><defs><style>.cls-1{font-size:43.72px;font-family:PRIMETIME-Regular, PRIMETIME;}.cls-1,.cls-5{fill:#fff;}.cls-2{letter-spacing:0.03em;}.cls-3{letter-spacing:-0.02em;}.cls-4{letter-spacing:0.03em;}</style></defs><title>bannerRecurso 6LOGO</title><g id="Capa_2" data-name="Capa 2"><g id="Capa_1-2" data-name="Capa 1"><text class="cls-1" transform="translate(54.45 38.65)"><tspan class="cls-2">B</tspan><tspan x="33.05" y="0">IT MUS</tspan><tspan class="cls-3" x="201.43" y="0">I</tspan><tspan class="cls-4" x="215.2" y="0">C</tspan><tspan x="248.13" y="0">A</tspan></text><path class="cls-5" d="M36.39,28.52a13.78,13.78,0,0,0-1.16-2.84,11.61,11.61,0,0,0-1.77-2.47,11.34,11.34,0,0,0-2.27-1.91,11.78,11.78,0,0,0,2.92-4.08,12.13,12.13,0,0,0,1-4.86,12.62,12.62,0,0,0-2.92-8,10.18,10.18,0,0,0-1.88-1.75A14.84,14.84,0,0,0,28,1.21a13.27,13.27,0,0,0-2.59-.9A11,11,0,0,0,22.82,0H0V43.61H24.73a11.35,11.35,0,0,0,4.72-1A12.69,12.69,0,0,0,33.3,40a11.93,11.93,0,0,0,2.58-3.87,12.05,12.05,0,0,0,.93-4.7A10.63,10.63,0,0,0,36.39,28.52ZM24.88,19.41a6.76,6.76,0,0,1-1.65,3.05c-.06-.41,0-.8-.05-1.2a4.45,4.45,0,0,0-1.66-3.32,38.85,38.85,0,0,0-3.46-2.67c-.08-.06-.15-.18-.25-.13s0,.19,0,.28v12a5.34,5.34,0,0,1-1.2,3.64,6,6,0,0,1-4,2.06,5.32,5.32,0,0,1-3.14-.46,3.57,3.57,0,0,1-1.53-5.21,6.16,6.16,0,0,1,4.68-2.93,4.86,4.86,0,0,1,1.32,0c.41.05.43,0,.43-.39V9.63a2.54,2.54,0,0,1,0-.39.72.72,0,0,1,.71-.68.69.69,0,0,1,.72.63,1,1,0,0,1,0,.3c-.13.6.23.94.64,1.24,1,.73,2.06,1.34,3.1,2,.83.51,1.68,1,2.48,1.56a9.36,9.36,0,0,1,2.37,2.41A3.53,3.53,0,0,1,24.88,19.41Z"/></g></g></svg>